<?xml version="1.0" encoding="UTF-8" standalone="no"?>
<svg
   xmlns:dc="http://purl.org/dc/elements/1.1/"
   xmlns:cc="http://creativecommons.org/ns#"
   xmlns:rdf="http://www.w3.org/1999/02/22-rdf-syntax-ns#"
   xmlns:svg="http://www.w3.org/2000/svg"
   xmlns="http://www.w3.org/2000/svg"
   xmlns:sodipodi="http://sodipodi.sourceforge.net/DTD/sodipodi-0.dtd"
   xmlns:inkscape="http://www.inkscape.org/namespaces/inkscape"
   version="1.1"
   viewBox="0 0 48 48"
   id="svg124"
   sodipodi:docname="thunar.svg"
   inkscape:version="0.92.5 (2060ec1f9f, 2020-04-08)">
  <metadata
     id="metadata128">
    <rdf:RDF>
      <cc:Work
         rdf:about="">
        <dc:format>image/svg+xml</dc:format>
        <dc:type
           rdf:resource="http://purl.org/dc/dcmitype/StillImage" />
      </cc:Work>
    </rdf:RDF>
  </metadata>
  <sodipodi:namedview
     pagecolor="#ffffff"
     bordercolor="#666666"
     borderopacity="1"
     objecttolerance="10"
     gridtolerance="10"
     guidetolerance="10"
     inkscape:pageopacity="0"
     inkscape:pageshadow="2"
     inkscape:window-width="1920"
     inkscape:window-height="915"
     id="namedview126"
     showgrid="false"
     inkscape:zoom="35.958333"
     inkscape:cx="24"
     inkscape:cy="24"
     inkscape:window-x="0"
     inkscape:window-y="0"
     inkscape:window-maximized="1"
     inkscape:current-layer="svg124" />
  <defs
     id="defs102">
    <linearGradient
       id="bg"
       x1="1"
       x2="47"
       gradientTransform="matrix(0 -1 1 0 -1.5e-6 48)"
       gradientUnits="userSpaceOnUse">
      <stop
         style="stop-color:#7568a0"
         offset="0"
         id="stop97" />
      <stop
         style="stop-color:#8074a8"
         offset="1"
         id="stop99" />
    </linearGradient>
  </defs>
  <path
     d="m36.31 5c5.859 4.062 9.688 10.831 9.688 18.5 0 12.426-10.07 22.5-22.5 22.5-7.669 0-14.438-3.828-18.5-9.688 1.037 1.822 2.306 3.499 3.781 4.969 4.085 3.712 9.514 5.969 15.469 5.969 12.703 0 23-10.298 23-23 0-5.954-2.256-11.384-5.969-15.469-1.469-1.475-3.147-2.744-4.969-3.781zm4.969 3.781c3.854 4.113 6.219 9.637 6.219 15.719 0 12.703-10.297 23-23 23-6.081 0-11.606-2.364-15.719-6.219 4.16 4.144 9.883 6.719 16.219 6.719 12.703 0 23-10.298 23-23 0-6.335-2.575-12.06-6.719-16.219z"
     style="opacity:.05"
     id="path104" />
  <path
     d="m41.28 8.781c3.712 4.085 5.969 9.514 5.969 15.469 0 12.703-10.297 23-23 23-5.954 0-11.384-2.256-15.469-5.969 4.113 3.854 9.637 6.219 15.719 6.219 12.703 0 23-10.298 23-23 0-6.081-2.364-11.606-6.219-15.719z"
     style="opacity:.1"
     id="path106" />
  <path
     d="m31.25 2.375c8.615 3.154 14.75 11.417 14.75 21.13 0 12.426-10.07 22.5-22.5 22.5-9.708 0-17.971-6.135-21.12-14.75a23 23 0 0 0 44.875-7 23 23 0 0 0-16-21.875z"
     style="opacity:.2"
     id="path108" />
  <path
     d="m24 1c12.703 0 23 10.297 23 23s-10.297 23-23 23-23-10.297-23-23 10.297-23 23-23z"
     style="fill:url(#bg)"
     id="path110" />
  <path
     d="m40.03 7.531c3.712 4.084 5.969 9.514 5.969 15.469 0 12.703-10.297 23-23 23-5.954 0-11.384-2.256-15.469-5.969 4.178 4.291 10.01 6.969 16.469 6.969 12.703 0 23-10.298 23-23 0-6.462-2.677-12.291-6.969-16.469z"
     style="opacity:.1"
     id="path112" />
  <path
     d="m13.999 15.996c-0.5 0-1 0.498-1 0.998h-2e-3v17.01h23.998v-14.932c0-0.531-0.5-1.066-1-1.066h-0.996c-2.987-0.016-6-8e-3 -9-8e-3l-1-1.998z"
     style="opacity:.1"
     id="path114" />
  <path
     d="m12 15.998-3.61e-4 3.0023 13 1 7.55e-4 -3.0031-0.99921-1.9984h-10.998c-0.49961 0-0.99921 0.49961-0.99921 0.99921z"
     style="fill:#ff8f00"
     id="path116" />
  <rect
     x="13.999"
     y="17.996"
     width="10.998"
     height="4.0004"
     style="fill:#fffdf0"
     id="rect118" />
  <path
     d="m35.999 18.063v14.935h-23.999v-14h12.001l0.99921-1.9984h9.9992c0.49961 0 0.99921 0.53504 0.99921 1.0665z"
     style="fill:#ffca28"
     id="path120" />
  <path
     d="m20.526 20.997c-0.51732 0-1.0169 0.07087-1.4917 0.19134v-0.02126c-0.5315 0.13819-0.93543 0.3189-1.0134 0.35433v0s-0.01063 0-0.02126 0.0071c0.05669 0.43228 0.13465 0.86102 0.17362 1.0594 0.42165 1.7858 1.6441 3.2563 3.2563 4.0394-0.0071 0.12047-0.02126 0.2374-0.02126 0.36142 0 1.6476 0.66614 3.1394 1.7327 4.2272-0.0071 0 0.0071 0.0071 0 0.01063 0.30827 0.29055 0.72638 0.62362 0.81496 0.69094 0.02126 0.01063 0.06024 0.02126 0.07087 0.03898 0.35433-0.31181 0.67323-0.65197 0.75472-0.74055 1.0665-1.0913 1.7327-2.5795 1.7327-4.2272 0-0.11339-0.02126-0.22323-0.02126-0.33662 1.6441-0.75827 2.8807-2.2287 3.3236-4.0181-0.0071 0 0-0.0071 0-0.01063 0.10984-0.47835 0.1878-0.99921 0.1878-1.0559-0.0071 0-0.02126-0.0071-0.02835-0.01063v-0.02126c-0.22677-0.10276-0.7441-0.27638-1.0169-0.3685v0.01063c-0.49606-0.13465-1.0205-0.21614-1.552-0.21614-1.2862 0-2.4768 0.41457-3.4512 1.1055-0.37559 0.28346-0.64488 0.52795-0.8185 0.69094-0.02126 0.02126-0.03189 0.04252-0.04961 0.06378-0.56339 0.58464-1.0028 1.2862-1.2933 2.0587 0.31535 0.1878 0.63071 0.3437 0.91063 0.47835 0.23386-0.68032 0.62008-1.2933 1.1091-1.8071 0-0.0071 0.02126-0.02835 0.03189-0.03898 0.02126-0.02835 0.04606-0.06024 0.0815-0.08858 0.0071-0.01063 0.02126-0.01063 0.03189-0.02126 0.34724-0.30472 0.62008-0.50315 0.82559-0.6378 0.10276-0.06378 0.20551-0.12402 0.31181-0.18071 0.69094-0.3685 1.4705-0.57756 2.3102-0.57756 0.49961 0 0.98858 0.07441 1.4457 0.21614-0.30472 1.4598-1.2402 2.6787-2.5193 3.3626-0.19842-0.84331-0.57047-1.6299-1.0878-2.2925-0.42874 0.30118-0.79724 0.60591-0.82559 0.62717 0.42165 0.53858 0.73346 1.1693 0.90709 1.8531 0 0 0.02126 0.07087 0.04961 0.20197 0.01063 0.06378 0.02126 0.10276 0.04606 0.22677 0.06378 0.31181 0.05669 0.67323 0.04961 0.81496v0.10276l-0.01063 0.01772c-0.03898 1.35-0.60945 2.5618-1.513 3.437-0.93543-0.9-1.5201-2.1685-1.5236-3.5787 0.49961 0.13819 1.024 0.21614 1.5661 0.21614 0.2941 0 0.58819-0.03189 0.86811-0.07441 0.01772-0.10276 0.02126-0.21969 0.03189-0.39331 0.01063-0.31181-0.02835-0.52795-0.06024-0.64842-0.27284 0.04606-0.5563 0.07087-0.83622 0.07087-0.50315 0-0.99213-0.07441-1.4528-0.2126-0.36496-0.07441-0.70866-0.25512-0.95669-0.41102-0.14173-0.08504-0.23386-0.14882-0.28701-0.18071-1.0984-0.7122-1.9063-1.8319-2.1791-3.1642 0.44291-0.12756 0.90709-0.20197 1.3925-0.20197 0.70866 0 1.3713 0.14882 1.9807 0.41811 0.29764-0.27992 0.65551-0.56339 0.86102-0.71929-0.84331-0.46063-1.8106-0.72992-2.8382-0.72992m0.0071 0"
     style="fill:#6a6034;opacity:.6"
     id="path122" />
  <path
     style="fill:#000000;stroke-width:0.06666667"
     d="M 21.246667,45.955065 C 16.819749,45.581187 12.720358,44.04732 9.2820547,41.478271 8.859258,41.162364 8.4944913,40.909299 8.471462,40.915904 8.4152273,40.932034 7.0822785,39.557977 6.549313,38.934477 2.4042271,34.085265 0.46460072,27.748279 1.1856857,21.410878 1.7779243,16.205869 4.0622422,11.477253 7.7777087,7.7651653 11.494209,4.0520443 16.306318,1.7461569 21.546667,1.1672958 c 1.14347,-0.1263105 3.485643,-0.1430561 4.6,-0.032888 4.429762,0.4379363 8.475699,2.0491676 11.966666,4.765539 4.960848,3.8601055 8.037135,9.3770782 8.735831,15.6667202 0.190767,1.717281 0.133385,4.154776 -0.140466,5.966666 l -0.105798,0.7 -0.578117,-0.02004 -0.578116,-0.02004 -0.25146,0.939951 c -0.65654,2.454126 -1.92124,5.103171 -3.45338,7.233466 -3.355706,4.66579 -8.23368,7.876204 -13.861827,9.123091 -1.650659,0.365695 -3.143551,0.513541 -5.033333,0.498465 -0.733334,-0.0059 -1.453334,-0.02077 -1.6,-0.03316 z M 36.946667,31.1 v -2.9 h -0.465484 -0.465484 l -0.01785,-5.261805 c -0.01771,-5.220572 -0.01894,-5.26328 -0.157312,-5.45 C 35.763832,17.384688 35.601895,17.2325 35.480678,17.15 L 35.260282,17 h -5.108583 -5.108584 l -0.496448,-1 -0.496449,-1 h -5.67525 -5.67525 l -0.222921,0.150227 c -0.122607,0.08262 -0.284544,0.255124 -0.359859,0.383333 -0.135977,0.231471 -0.137062,0.29356 -0.154587,8.849773 L 11.944703,33 h 0.534315 0.534315 V 33.5 34 H 24.98 36.946667 Z"
     id="path130"
     inkscape:connector-curvature="0" />
  <path
     style="fill:#000000;stroke-width:0.06666667"
     d="M 13.013333,33.5 V 33 h 11.5 11.5 V 30.6 28.2 H 36.48 36.946667 V 31.1 34 H 24.98 13.013333 Z"
     id="path132"
     inkscape:connector-curvature="0" />
  <path
     style="fill:#000000;stroke-width:0.06666667"
     d="m 22.391297,47.060921 c -1.031809,-0.09083 -1.611229,-0.19993 -0.74463,-0.140202 1.332735,0.09185 4.342006,0.04844 5.254739,-0.07582 5.2195,-0.710542 9.750279,-2.943943 13.411927,-6.611273 3.87027,-3.876274 6.174911,-8.897793 6.639656,-14.466962 0.09513,-1.14002 0.04041,-3.552939 -0.105074,-4.633334 -0.223612,-1.660541 -0.617334,-3.31466 -1.134587,-4.766666 -0.366403,-1.028549 -0.425359,-1.253611 -0.209567,-0.8 0.482721,1.014711 1.175864,3.460738 1.435766,5.066666 0.410904,2.538963 0.351036,5.560978 -0.159806,8.066667 -0.971667,4.766043 -3.449247,9.151012 -6.998216,12.385863 -3.522426,3.210656 -7.84569,5.221113 -12.577015,5.848718 -1.197672,0.15887 -3.698125,0.224504 -4.813193,0.12634 z"
     id="path134"
     inkscape:connector-curvature="0" />
  <path
     style="fill:#000000;stroke-width:0.06666667"
     d="M 21.613333,46.861484 C 18.007483,46.467377 14.526484,45.233685 11.51657,43.283117 10.828942,42.837501 9.3587028,41.741826 9.2133239,41.566655 c -0.1566166,-0.188711 0.011575,-0.09946 0.5554282,0.294738 2.2466809,1.628448 5.3807519,3.003278 8.2779149,3.631291 1.995469,0.432554 2.407421,0.471789 4.933333,0.469857 2.085869,-0.0016 2.435855,-0.01773 3.3,-0.152176 4.847127,-0.754105 9.209706,-2.88816 12.675468,-6.200496 3.003359,-2.870403 5.168728,-6.512571 6.288041,-10.576536 0.210904,-0.765743 0.227822,-0.799821 0.395082,-0.795833 0.09611,0.0023 0.351625,0.0098 0.567815,0.01667 l 0.393073,0.0125 -0.160972,0.744282 c -0.245728,1.136168 -0.527206,2.047873 -1.004771,3.254449 -2.590721,6.545492 -7.541573,11.269057 -14.220403,13.567563 -0.741238,0.255096 -2.562821,0.724414 -3.066666,0.790105 -0.165,0.02151 -0.63,0.08788 -1.033334,0.147481 -0.866246,0.12801 -4.596509,0.189686 -5.5,0.09094 z"
     id="path136"
     inkscape:connector-curvature="0" />
  <path
     style="fill:#000000;stroke-width:0.06666667"
     d="m 21.48,46.827064 c -0.09167,-0.01654 -0.568731,-0.09197 -1.060142,-0.167627 -2.517317,-0.38754 -5.292079,-1.339124 -7.496768,-2.570962 -1.152164,-0.643756 -3.0362573,-1.91753 -2.9556007,-1.998186 0.016819,-0.01682 0.2815147,0.132458 0.5882117,0.331729 2.083854,1.353941 4.84159,2.499137 7.392533,3.069871 1.186783,0.265524 2.306853,0.44258 2.721724,0.430238 0.306903,-0.0091 0.327294,-0.01592 0.110042,-0.03664 -0.621283,-0.05926 -2.038245,-0.297888 -2.854593,-0.48074 -2.751136,-0.616223 -5.32522,-1.72632 -7.67874,-3.311528 C 8.4748387,40.899807 8.4101947,40.848601 7.5348077,39.945077 3.9835852,36.279708 1.8394111,31.740618 1.1993719,26.533333 1.0645723,25.436619 1.0857998,22.310522 1.2355874,21.2 1.7966419,17.040355 3.2181119,13.518337 5.6394665,10.288377 9.475472,5.1713471 15.127029,1.9406038 21.546667,1.1949394 c 1.074949,-0.1248593 4.11611,-0.1074653 5.166666,0.029551 3.666577,0.4782042 6.943644,1.6840326 9.88361,3.636769 3.477528,2.3097878 6.081027,5.2222006 7.894617,8.8313396 2.109436,4.197889 2.858067,8.820982 2.211583,13.657401 l -0.11362,0.85 h -0.585525 -0.585525 l -0.07306,0.283333 c -0.967434,3.751578 -2.719062,7.041336 -5.264764,9.887822 -3.217513,3.597674 -7.717879,6.164369 -12.552664,7.159164 -1.377639,0.283461 -2.131982,0.355209 -4.247981,0.40404 l -2.1,0.04846 2.233333,-0.01659 c 2.06584,-0.01534 2.307431,-0.02961 3.221338,-0.190191 5.432081,-0.954477 10.06283,-3.515163 13.693463,-7.572134 2.14838,-2.400661 3.880541,-5.565876 4.854416,-8.870576 0.135068,-0.458333 0.273305,-0.885833 0.307193,-0.95 0.0504,-0.09542 0.153583,-0.116666 0.566688,-0.116666 h 0.505074 l -0.04517,0.25 c -0.226447,1.253264 -0.770179,2.95628 -1.439293,4.508 -1.682987,3.902956 -4.341073,7.218562 -7.730374,9.642608 -1.753585,1.254174 -4.192659,2.491353 -6.257192,3.173856 -0.90888,0.300462 -2.499968,0.682561 -3.449023,0.828281 -0.796247,0.122257 -1.284725,0.145554 -3.460452,0.16504 -1.393333,0.01248 -2.608333,0.0092 -2.7,-0.0074 z M 35.998545,25.295512 35.98,17.591023 35.667214,17.295512 35.354428,17 H 30.217631 25.080835 L 24.58,16 24.079165,15 H 18.343668 12.60817 l -0.277451,0.258803 c -0.262483,0.244842 -0.280104,0.285302 -0.32663,0.75 -0.02705,0.270158 -0.05103,4.203697 -0.0533,8.741197 l -0.0041,8.25 h 12.035212 12.035212 z"
     id="path138"
     inkscape:connector-curvature="0" />
  <path
     style="fill:#000000;stroke-width:0.06666667"
     d="m 21.38,46.824539 c -3.341813,-0.512772 -5.886167,-1.32667 -8.333333,-2.665699 -1.206254,-0.660032 -3.1674583,-1.980271 -3.076619,-2.071111 0.019585,-0.01958 0.119836,0.02405 0.22278,0.09696 0.450691,0.319207 1.524169,0.934879 2.365633,1.356761 0.919972,0.461244 2.380416,1.088562 2.42664,1.042339 0.01375,-0.01375 -0.29677,-0.154949 -0.690049,-0.313771 C 12.652267,43.606593 11.169937,42.777886 9.433076,41.551896 8.5664527,40.940177 8.1856227,40.616811 7.5073861,39.916773 3.8138362,36.104503 1.5908671,31.201253 1.141926,25.876344 1.0442373,24.717655 1.0967378,22.237248 1.2422159,21.138101 1.6402467,18.130817 2.5871803,15.25605 3.9997239,12.766667 7.3039359,6.9435191 13.02689,2.7986441 19.546667,1.5067241 c 5.077547,-1.00613643 10.54788,-0.2175907 15.066666,2.1718525 4.320715,2.2847069 7.75425,5.7668381 9.894757,10.0348024 2.10725,4.201652 2.843325,8.784975 2.195376,13.669954 L 46.595143,28.2 h -0.588336 -0.588334 l -0.07284,0.283333 c -0.04006,0.155834 -0.116219,0.437951 -0.169236,0.626928 -0.163624,0.583228 -0.09644,0.488609 0.12562,-0.176928 L 45.513333,28.3 46.03,28.280529 c 0.343552,-0.01295 0.516667,0.0051 0.516667,0.05397 0,0.04039 -0.07563,0.409154 -0.168068,0.819471 -0.567936,2.520988 -1.820074,5.377954 -3.365599,7.679184 -1.531699,2.280644 -3.746131,4.526647 -5.966333,6.051396 -2.815106,1.933306 -6.22483,3.303071 -9.433334,3.789588 -0.760812,0.115366 -1.296942,0.139921 -3.466666,0.15878 C 22.735,46.845187 21.49,46.841417 21.38,46.824539 Z m -1.366667,-1.029796 c -1.56556,-0.23326 -3.158492,-0.605812 -4.409299,-1.031239 -0.263932,-0.08977 -0.492455,-0.150639 -0.507829,-0.135265 -0.03549,0.03549 1.21974,0.440862 2.050462,0.662198 1.25575,0.334579 2.840113,0.627238 3.4,0.62804 0.165,2.66e-4 -0.075,-0.05544 -0.533334,-0.123734 z m 6.68357,-0.03361 c 0.35763,-0.06392 0.637827,-0.128625 0.62266,-0.143792 -0.01517,-0.01517 -0.322774,0.02144 -0.68357,0.08135 -0.360796,0.05991 -0.910993,0.135584 -1.22266,0.168162 l -0.566666,0.05923 0.6,-0.02437 c 0.33,-0.0134 0.892606,-0.07667 1.250236,-0.140585 z m 1.68477,-0.356577 c 0.698178,-0.170927 1.200992,-0.323132 1.098327,-0.332468 -0.01833,-0.0017 -0.498333,0.114497 -1.066667,0.258144 -0.568333,0.143646 -0.98758,0.263108 -0.93166,0.265472 0.05592,0.0024 0.46092,-0.08365 0.9,-0.191148 z m 1.885706,-0.544789 c 0.341574,-0.113795 0.609487,-0.218456 0.595363,-0.232579 -0.01412,-0.01412 -0.323518,0.07671 -0.687544,0.201843 -0.364025,0.125137 -0.631939,0.229798 -0.595363,0.232579 0.03658,0.0028 0.345971,-0.08805 0.687544,-0.201843 z m 1.079288,-0.404347 c 0.0695,-0.04294 0.04916,-0.04819 -0.06667,-0.0172 -0.09167,0.02452 -0.211667,0.07238 -0.266667,0.106367 -0.0695,0.04294 -0.04916,0.04819 0.06667,0.0172 0.09167,-0.02452 0.211667,-0.07238 0.266667,-0.106367 z M 31.68,44.333333 c 0.055,-0.03554 0.07,-0.06462 0.03333,-0.06462 -0.03667,0 -0.111666,0.02908 -0.166666,0.06462 -0.055,0.03554 -0.07,0.06462 -0.03333,0.06462 0.03667,0 0.111667,-0.02908 0.166667,-0.06462 z m 0.4,-0.166666 c 0.09167,-0.0524 0.136667,-0.09528 0.1,-0.09528 -0.03667,0 -0.141667,0.04287 -0.233333,0.09528 -0.09167,0.0524 -0.136667,0.09528 -0.1,0.09528 0.03667,0 0.141666,-0.04287 0.233333,-0.09528 z m 0.666667,-0.3 c 0.201666,-0.10654 0.336666,-0.19371 0.3,-0.19371 -0.03667,0 -0.231667,0.08717 -0.433334,0.19371 -0.201666,0.10654 -0.336666,0.193709 -0.3,0.193709 0.03667,0 0.231667,-0.08717 0.433334,-0.193709 z m 2.597945,-1.416338 c 0.347203,-0.218724 0.964675,-0.645609 1.372159,-0.948633 2.702189,-2.009469 4.883477,-4.501199 6.483402,-7.406126 0.483264,-0.877445 1.176375,-2.354577 1.127681,-2.403272 -0.01443,-0.01443 -0.158602,0.280384 -0.32038,0.655145 -0.364729,0.844901 -1.131181,2.256688 -1.706241,3.142852 -1.993656,3.072218 -4.859552,5.763921 -7.991078,7.50537 -0.389932,0.216842 -0.728734,0.416624 -0.752894,0.44396 -0.08331,0.09426 1.157635,-0.5926 1.787351,-0.989296 z M 35.999051,25.295509 35.98,17.591017 35.667214,17.295509 35.354428,17 H 30.217631 25.080835 L 24.58,16 24.079165,15 h -5.7278 -5.727802 l -0.207509,0.174608 c -0.471068,0.396377 -0.433843,-0.355086 -0.456171,9.208725 L 11.939767,33 h 12.039167 12.039167 z m 8.478907,6.071158 c 0,-0.03667 -0.02908,-0.02167 -0.06462,0.03333 -0.03554,0.055 -0.06462,0.13 -0.06462,0.166667 0,0.03667 0.02908,0.02167 0.06462,-0.03333 0.03554,-0.055 0.06462,-0.13 0.06462,-0.166666 z m 0.163828,-0.433334 c 0.03098,-0.115832 0.02573,-0.136166 -0.01721,-0.06667 -0.03398,0.055 -0.08185,0.175 -0.106367,0.266666 -0.03098,0.115832 -0.02573,0.136166 0.0172,0.06667 0.03398,-0.055 0.08185,-0.175 0.106367,-0.266667 z m 0.271839,-0.73419 c 0.09151,-0.26904 0.164142,-0.521409 0.161413,-0.56082 -0.0044,-0.06328 -0.233267,0.548856 -0.363711,0.972724 -0.113002,0.367193 0.05063,0.03402 0.202298,-0.411904 z"
     id="path140"
     inkscape:connector-curvature="0" />
  <path
     style="fill:#000000;stroke-width:0.06666667"
     d="m 21.38,46.825144 c -4.087313,-0.620515 -7.086417,-1.726958 -10.066667,-3.713839 -0.741896,-0.49461 -1.3845097,-0.982351 -1.3455743,-1.021286 0.016085,-0.01609 0.3250273,0.157097 0.6865363,0.38485 0.658058,0.414579 2.617824,1.459788 2.73181,1.456964 0.03331,-8.25e-4 -0.389438,-0.235155 -0.939438,-0.520734 C 10.368999,42.332305 8.7159867,41.163023 7.504435,39.915143 3.8559606,36.15727 1.5990428,31.216945 1.1474981,26 1.062,25.012193 1.0626653,23.055181 1.1488466,22.033333 1.6158373,16.49625 4.0935106,11.329095 8.141584,7.450072 11.713886,4.0269518 16.249867,1.8722445 21.246667,1.2248218 22.488355,1.0639393 25.585505,1.0652534 26.78,1.2271695 c 5.306123,0.7192552 9.822011,2.9442947 13.534537,6.6686492 2.242759,2.2499053 3.914568,4.8125943 5.065188,7.7643453 1.431644,3.67268 1.875195,7.59866 1.324464,11.723169 L 46.595143,28.2 h -0.58212 -0.58212 l -0.108784,0.387707 C 45.171424,29.124778 45.192816,29.17787 45.367364,28.7 l 0.146105,-0.4 0.516599,-0.01947 c 0.452527,-0.01706 0.516599,-0.0052 0.516599,0.09571 0,0.249869 -0.488156,2.075557 -0.777792,2.908916 -1.717063,4.940447 -4.81989,8.989996 -9.069426,11.836651 -2.62456,1.758126 -6.006048,3.086318 -9.052782,3.555783 -0.730137,0.112505 -1.276256,0.137038 -3.466667,0.155731 -1.43,0.0122 -2.69,0.0085 -2.8,-0.0082 z m -0.841688,-0.922388 c -0.01682,-0.01682 -0.254318,-0.06335 -0.527778,-0.103402 -0.273461,-0.04005 -0.730677,-0.118468 -1.016037,-0.174255 -0.28536,-0.05579 -0.55536,-0.0892 -0.6,-0.07425 -0.04464,0.01495 0.218836,0.08128 0.585503,0.147403 1.088322,0.196267 1.619824,0.266019 1.558312,0.204506 z m 5.50384,-0.04937 c 0.332483,-0.04397 0.559515,-0.08873 0.504515,-0.09947 -0.055,-0.01074 -0.415,0.02186 -0.8,0.07245 -0.385,0.05059 -0.612032,0.09535 -0.504515,0.09947 0.107517,0.0041 0.467517,-0.02848 0.8,-0.07245 z m 0.92245,-0.163781 c -0.04513,-0.01826 -0.135135,-0.01937 -0.2,-0.0025 -0.06487,0.0169 -0.02793,0.03184 0.08207,0.0332 0.11,0.0014 0.16307,-0.01247 0.117935,-0.03073 z m 0.297343,-0.06321 c -0.02215,-0.02215 -0.07965,-0.02452 -0.127778,-0.0053 -0.05318,0.02128 -0.03739,0.03708 0.04028,0.04028 0.07028,0.0029 0.109652,-0.01286 0.0875,-0.03502 z m -9.115278,-0.159722 c -0.09167,-0.02936 -0.226667,-0.05338 -0.3,-0.05338 -0.105578,0 -0.09864,0.01111 0.03333,0.05338 0.09167,0.02936 0.226667,0.05338 0.3,0.05338 0.105578,0 0.09864,-0.01111 -0.03333,-0.05338 z m 9.781944,0.02639 c -0.02215,-0.02215 -0.07965,-0.02452 -0.127778,-0.0053 -0.05318,0.02128 -0.03739,0.03708 0.04028,0.04028 0.07028,0.0029 0.109653,-0.01286 0.0875,-0.03502 z m 0.266667,-0.06667 c -0.02215,-0.02215 -0.07965,-0.02452 -0.127778,-0.0053 -0.05318,0.02128 -0.03739,0.03708 0.04028,0.04028 0.07028,0.0029 0.109653,-0.01286 0.0875,-0.03501 z m -10.533333,-0.06667 c -0.02215,-0.02215 -0.07965,-0.02452 -0.127778,-0.0053 -0.05318,0.02128 -0.03739,0.03708 0.04028,0.04028 0.07028,0.0029 0.109652,-0.01286 0.0875,-0.03501 z m 10.8,0 c -0.02215,-0.02215 -0.07965,-0.02452 -0.127778,-0.0053 -0.05318,0.02128 -0.03739,0.03708 0.04028,0.04028 0.07028,0.0029 0.109652,-0.01286 0.0875,-0.03501 z m -11.066667,-0.06667 c -0.02215,-0.02215 -0.07965,-0.02452 -0.127778,-0.0053 -0.05318,0.02128 -0.03738,0.03708 0.04028,0.04028 0.07028,0.0029 0.109653,-0.01286 0.0875,-0.03502 z m -0.348611,-0.08863 c -0.07333,-0.02959 -0.238334,-0.07151 -0.366667,-0.09316 -0.230039,-0.03881 -0.229569,-0.03806 0.03333,0.05289 0.286085,0.09898 0.561248,0.132212 0.333334,0.04026 z m 11.948611,0.02197 c -0.02215,-0.02215 -0.07965,-0.02452 -0.127778,-0.0053 -0.05318,0.02128 -0.03739,0.03708 0.04028,0.04028 0.07028,0.0029 0.109653,-0.01286 0.0875,-0.03502 z m 0.266667,-0.06667 c -0.02215,-0.02215 -0.07965,-0.02452 -0.127778,-0.0053 -0.05318,0.02128 -0.03739,0.03708 0.04028,0.04028 0.07028,0.0029 0.109652,-0.01286 0.0875,-0.03501 z m -13.448612,-0.32639 c -0.30438,-0.117216 -0.424137,-0.115486 -0.166666,0.0024 0.11,0.05037 0.245,0.09065 0.3,0.08951 0.055,-0.0011 -0.005,-0.0425 -0.133334,-0.09192 z m 15.866667,-0.5 c 0.055,-0.03554 0.07,-0.06462 0.03333,-0.06462 -0.03667,0 -0.111666,0.02908 -0.166666,0.06462 -0.055,0.03554 -0.07,0.06462 -0.03333,0.06462 0.03667,0 0.111667,-0.02908 0.166667,-0.06462 z m 0.4,-0.166666 c 0.09167,-0.0524 0.136667,-0.09528 0.1,-0.09528 -0.03667,0 -0.141667,0.04287 -0.233333,0.09528 -0.09167,0.0524 -0.136667,0.09528 -0.1,0.09528 0.03667,0 0.141666,-0.04287 0.233333,-0.09528 z M 13.88,44.1 c -0.09167,-0.0524 -0.196667,-0.09528 -0.233333,-0.09528 -0.03667,0 0.0083,0.04287 0.1,0.09528 0.09167,0.0524 0.196666,0.09528 0.233333,0.09528 0.03667,0 -0.0083,-0.04287 -0.1,-0.09528 z M 32.746667,43.866667 C 32.875,43.796407 32.95,43.738922 32.913333,43.738922 c -0.03667,0 -0.171666,0.05748 -0.3,0.127745 -0.128333,0.07026 -0.203333,0.127744 -0.166666,0.127744 0.03667,0 0.171666,-0.05748 0.3,-0.127744 z m 1.466666,-0.770091 c 0,-0.01833 -0.09,0.01321 -0.2,0.07009 -0.11,0.05688 -0.2,0.118424 -0.2,0.136757 0,0.01833 0.09,-0.01321 0.2,-0.07009 0.11,-0.05688 0.2,-0.118424 0.2,-0.136757 z M 34.68,42.828642 c 0,-0.01833 -0.06,-0.0012 -0.133333,0.03802 -0.07333,0.03925 -0.133334,0.08636 -0.133334,0.104691 0,0.01833 0.06,0.0012 0.133334,-0.03803 C 34.62,42.894087 34.68,42.846975 34.68,42.828642 Z m 0.333333,-0.2 c 0,-0.01833 -0.06,-0.0012 -0.133333,0.03802 -0.07333,0.03925 -0.133333,0.08636 -0.133333,0.104691 0,0.01833 0.06,0.0012 0.133333,-0.03802 0.07333,-0.03925 0.133333,-0.08636 0.133333,-0.104691 z m 0.433334,-0.260768 0.133333,-0.108563 -0.133333,0.06546 c -0.07333,0.036 -0.193334,0.114312 -0.266667,0.174022 L 35.046667,42.607355 35.18,42.541896 c 0.07333,-0.036 0.193333,-0.114313 0.266667,-0.174022 z m 0.966666,-0.676953 c 0,-0.01833 -0.09,0.03075 -0.2,0.109079 -0.11,0.07833 -0.2,0.157413 -0.2,0.175746 0,0.01833 0.09,-0.03075 0.2,-0.109079 0.11,-0.07833 0.2,-0.157413 0.2,-0.175746 z m 0.753011,-0.550706 c 0.04418,-0.05474 -0.09218,0.02993 -0.303011,0.18814 C 36.6525,41.486571 36.48,41.629279 36.48,41.645485 c 0,0.04554 0.595777,-0.393053 0.686344,-0.50527 z m 0.280323,-0.206882 C 37.513033,40.86 37.552332,40.8 37.533999,40.8 c -0.01833,0 -0.08763,0.06 -0.153999,0.133333 -0.06637,0.07333 -0.105665,0.133334 -0.08733,0.133334 0.01833,0 0.08763,-0.06 0.153999,-0.133334 z m 0.366666,-0.3 c 0.08612,-0.09167 0.141576,-0.166666 0.123242,-0.166666 -0.01833,0 -0.103792,0.075 -0.189908,0.166666 C 37.66055,40.725 37.605091,40.8 37.623425,40.8 c 0.01833,0 0.103792,-0.075 0.189908,-0.166667 z m 0.5,-0.433333 c 0.143216,-0.146667 0.245394,-0.266667 0.22706,-0.266667 -0.01833,0 -0.15051,0.12 -0.293726,0.266667 -0.143216,0.146667 -0.245394,0.266667 -0.22706,0.266667 0.01833,0 0.15051,-0.12 0.293726,-0.266667 z m 2.549909,-2.652169 c 0.534972,-0.656142 1.356063,-1.783364 1.515959,-2.081164 0.115898,-0.215855 -0.09256,0.05547 -0.52334,0.681164 -0.615236,0.893613 -1.496803,1.960073 -2.453584,2.968178 l -0.807349,0.850658 0.827524,-0.833334 C 39.87759,38.675 40.525946,37.961524 40.863242,37.547831 Z M 42.68,35 c 0.03925,-0.07333 0.05636,-0.133333 0.03802,-0.133333 -0.01833,0 -0.06544,0.06 -0.104692,0.133333 -0.03925,0.07333 -0.05636,0.133333 -0.03802,0.133333 0.01833,0 0.06544,-0.06 0.104692,-0.133333 z m 0.2,-0.333333 c 0.03925,-0.07333 0.05636,-0.133334 0.03802,-0.133334 -0.01833,0 -0.06544,0.06 -0.104692,0.133334 C 42.774087,34.74 42.756975,34.8 42.775309,34.8 c 0.01833,0 0.06544,-0.06 0.104691,-0.133333 z m 0.3,-0.533334 c 0.05688,-0.11 0.08842,-0.2 0.07009,-0.2 -0.01833,0 -0.07987,0.09 -0.136758,0.2 -0.05688,0.11 -0.08842,0.2 -0.07009,0.2 0.01833,0 0.07987,-0.09 0.136758,-0.2 z m 0.403204,-0.739528 c 0.05864,-0.113408 0.09479,-0.218031 0.08033,-0.232496 -0.01447,-0.01447 -0.07619,0.07832 -0.137171,0.206195 -0.137105,0.287513 -0.0896,0.309493 0.05684,0.0263 z M 35.999542,25.292514 35.98,17.585028 35.656883,17.292514 35.333767,17 H 30.207301 25.080835 L 24.58,16 24.079165,15 h -5.717726 -5.717726 l -0.246202,0.20294 c -0.138279,0.113981 -0.281078,0.311238 -0.325765,0.45 -0.05931,0.184181 -0.08678,2.42313 -0.107933,8.79706 L 11.935445,33 h 12.04182 12.041819 z m 8.1424,6.874153 c 0,-0.03667 -0.04287,0.0083 -0.09528,0.1 -0.0524,0.09167 -0.09528,0.196666 -0.09528,0.233333 0,0.03667 0.04287,-0.0083 0.09528,-0.1 0.0524,-0.09167 0.09528,-0.196667 0.09528,-0.233333 z m 0.336016,-0.8 c 0,-0.03667 -0.02908,-0.02167 -0.06462,0.03333 -0.03554,0.055 -0.06462,0.13 -0.06462,0.166667 0,0.03667 0.02908,0.02167 0.06462,-0.03333 0.03554,-0.055 0.06462,-0.13 0.06462,-0.166666 z"
     id="path142"
     inkscape:connector-curvature="0" />
  <path
     style="fill:#ffffff;stroke-width:0.06666667"
     d="m 12.013333,26 v -7 h 5.999583 5.999583 l 0.501635,-1.001599 0.501635,-1.001598 5.12596,0.01826 5.125959,0.01826 0.256156,0.206328 c 0.140886,0.11348 0.291963,0.30848 0.335727,0.433333 0.05976,0.17048 0.08051,2.107016 0.08333,7.777006 l 0.0038,7.55 H 23.98 12.013333 Z m 12.665473,5.351717 c 1.187723,-1.269467 1.73985,-2.492531 1.844231,-4.085319 l 0.04206,-0.641777 0.374023,-0.195644 c 1.092714,-0.571575 2.090428,-1.697825 2.611234,-2.94764 0.220736,-0.529718 0.503516,-1.746209 0.442735,-1.904603 -0.05194,-0.135363 -1.203167,-0.491252 -1.878449,-0.580703 -2.096878,-0.277761 -4.245252,0.665061 -5.553794,2.437302 -0.318173,0.430923 -0.747512,1.233516 -0.747512,1.397376 0,0.0874 0.70144,0.502624 0.849076,0.502624 0.02908,0 0.147407,-0.2025 0.262944,-0.45 0.542392,-1.161896 1.583013,-2.102032 2.830741,-2.557397 0.564267,-0.205931 1.448503,-0.336568 1.927055,-0.284701 0.668558,0.07246 1.130184,0.176974 1.130184,0.255877 0,0.162925 -0.264958,0.846897 -0.511268,1.319799 -0.282968,0.543286 -1.194078,1.51055 -1.663198,1.765705 L 26.3644,25.531898 26.152646,24.939924 c -0.1848,-0.516619 -0.456084,-1.034102 -0.80773,-1.540766 l -0.101751,-0.146607 -0.364915,0.283343 c -0.200704,0.155839 -0.390715,0.306314 -0.422248,0.334389 -0.03153,0.02808 0.0387,0.190624 0.156072,0.361219 0.559528,0.813247 0.8256,1.704177 0.816844,2.735165 -0.0076,0.894525 -0.166115,1.557306 -0.546688,2.285781 -0.267395,0.511832 -0.829113,1.280885 -0.935562,1.280885 -0.10645,0 -0.668168,-0.769053 -0.935562,-1.280885 C 22.706923,28.670197 22.48,27.870985 22.48,27.381917 v -0.330089 l 0.25,0.04786 c 0.455193,0.08714 1.24372,0.13413 1.683333,0.100313 l 0.433334,-0.03333 V 26.633333 26.1 L 24.18,26.121658 c -1.117588,0.03631 -1.974114,-0.193179 -2.83314,-0.759071 -0.95593,-0.62973 -1.627858,-1.464856 -2.000809,-2.486765 -0.109661,-0.30048 -0.199384,-0.572472 -0.199384,-0.604425 0,-0.119952 0.720764,-0.234126 1.433333,-0.22705 0.584403,0.0058 0.853511,0.04309 1.325089,0.183616 0.665809,0.198401 0.609122,0.212284 1.174911,-0.287734 l 0.3,-0.265125 -0.444225,-0.202264 C 21.60409,20.8665 20.023617,20.811071 18.522252,21.318053 l -0.524414,0.177085 0.04153,0.405411 c 0.18059,1.762659 1.373493,3.601098 2.902214,4.472738 l 0.454582,0.259191 0.03666,0.733761 c 0.05411,1.083103 0.360847,2.035666 0.944797,2.934094 0.321609,0.494805 1.457996,1.633 1.630408,1.633 0.07311,0 0.356554,-0.245773 0.670771,-0.581616 z"
     id="path144"
     inkscape:connector-curvature="0" />
  <path
     style="fill:#ffffff;stroke-width:0.06666667"
     d="m 12.013333,26 v -7 h 1 1 V 18.5 18 h 5.234172 5.234171 l -0.23845,0.473499 c -0.131148,0.260424 -0.227661,0.484288 -0.214475,0.497474 0.01319,0.01319 0.247612,-0.429062 0.520945,-0.982773 l 0.496971,-1.006749 2.033333,0.04249 c 1.118333,0.02337 3.418531,0.04254 5.111551,0.04261 l 3.078219,1.17e-4 0.21418,0.18022 c 0.410237,0.345192 0.387887,-0.07193 0.438274,8.17949 L 35.968473,33 h -11.97757 -11.97757 z m 12.645362,5.380853 c 1.187654,-1.237089 1.741691,-2.435262 1.879916,-4.06555 0.03037,-0.35825 0.06711,-0.660044 0.08164,-0.670653 0.01453,-0.01061 0.251415,-0.150169 0.526415,-0.310133 0.667735,-0.388412 1.596442,-1.329786 2.013728,-2.041194 0.353084,-0.601956 0.674754,-1.49596 0.79904,-2.220744 0.09864,-0.575222 0.08291,-0.596487 -0.596468,-0.806326 -0.865842,-0.267431 -1.471236,-0.352206 -2.246182,-0.314539 -2.140787,0.104056 -4.046018,1.33453 -5.063933,3.270489 -0.131735,0.250546 -0.239519,0.510844 -0.239519,0.578441 0,0.125221 0.620738,0.532689 0.811498,0.532689 0.0524,0 0.162535,-0.138457 0.244751,-0.307683 0.671982,-1.383142 1.755529,-2.316463 3.212099,-2.766766 0.588013,-0.181785 1.802587,-0.217853 2.37489,-0.07052 l 0.343238,0.08836 -0.06667,0.244973 c -0.205911,0.756544 -0.761559,1.645627 -1.430346,2.288671 -0.316184,0.304014 -0.793822,0.656302 -0.889826,0.656302 -0.02664,0 -0.115872,-0.1875 -0.198299,-0.416667 -0.183899,-0.511281 -0.611971,-1.347719 -0.826209,-1.614386 l -0.158846,-0.197719 -0.376861,0.290747 c -0.207274,0.15991 -0.392174,0.315522 -0.410889,0.345803 -0.01871,0.03028 0.102962,0.288419 0.270391,0.573639 0.926349,1.578057 0.919952,3.494077 -0.01691,5.065655 -0.148502,0.24911 -0.377748,0.572928 -0.509434,0.719594 L 23.946473,30.5 23.685935,30.20643 c -0.583159,-0.657096 -1.082772,-1.80332 -1.175546,-2.696965 -0.04621,-0.445098 -0.04372,-0.456014 0.09398,-0.41231 0.218376,0.06931 1.393879,0.142133 1.858964,0.115164 L 24.88,27.188157 v -0.552639 -0.552639 l -1.016667,-0.03297 c -1.074845,-0.03486 -1.357406,-0.09849 -2.093344,-0.47142 -0.521642,-0.264336 -1.295822,-0.912972 -1.654252,-1.385992 -0.354873,-0.468326 -0.82441,-1.404369 -0.881772,-1.757854 -0.03526,-0.21727 -0.02708,-0.227613 0.221379,-0.280119 0.141894,-0.02999 0.632989,-0.05309 1.091323,-0.05135 0.647792,0.0025 0.957596,0.03664 1.391445,0.15349 l 0.558113,0.150322 0.241887,-0.16805 c 0.133039,-0.09243 0.342749,-0.25649 0.466025,-0.364583 l 0.224137,-0.196531 -0.190803,-0.09471 c -0.864512,-0.42911 -1.63115,-0.606675 -2.624138,-0.607791 -0.868615,-9.76e-4 -1.287962,0.06414 -2.143541,0.332836 l -0.510207,0.160233 0.0332,0.282473 c 0.16731,1.423576 0.808655,2.753887 1.798986,3.731552 0.511996,0.505448 0.780229,0.714726 1.235512,0.963957 0.347669,0.190322 0.338389,0.163073 0.418579,1.229097 0.07317,0.972771 0.482794,2.06595 1.063665,2.838679 0.393017,0.52283 1.336557,1.419188 1.493889,1.419188 0.06934,0 0.36075,-0.245692 0.65528,-0.55248 z"
     id="path146"
     inkscape:connector-curvature="0" />
  <path
     style="fill:#ffffff;stroke-width:0.06666667"
     d="M 23.287864,31.281618 C 22.085,30.091289 21.578697,28.950365 21.44118,27.12023 l -0.03855,-0.513103 -0.498671,-0.310809 c -1.425805,-0.888665 -2.510333,-2.464239 -2.7576,-4.006169 -0.04029,-0.251249 -0.08673,-0.52215 -0.1032,-0.602002 -0.02564,-0.124307 0.02442,-0.165529 0.348094,-0.28663 0.707547,-0.264727 1.27835,-0.35608 2.222085,-0.355627 0.979772,4.7e-4 1.523139,0.108059 2.3,0.45541 l 0.4,0.178849 L 22.98,21.972442 c -0.183333,0.16076 -0.38453,0.309335 -0.447104,0.330165 -0.06257,0.02083 -0.317573,-0.02728 -0.566666,-0.106917 -0.57255,-0.183044 -1.718321,-0.247051 -2.362291,-0.131967 -0.251261,0.0449 -0.469102,0.101483 -0.48409,0.125734 -0.05368,0.08685 0.280185,1.007376 0.527592,1.454673 0.342257,0.618779 1.300694,1.562918 1.967405,1.938055 0.727431,0.409302 1.383162,0.568197 2.381821,0.577156 l 0.816666,0.0073 v 0.478027 0.478027 l -0.421558,0.04515 c -0.381953,0.0409 -1.201817,-0.02415 -1.761775,-0.139788 -0.21204,-0.04379 -0.216667,-0.03971 -0.216667,0.191057 0,1.001144 0.56805,2.352348 1.335619,3.177001 l 0.213585,0.229469 0.194537,-0.229469 C 25.061533,29.329269 25.48,28.216079 25.48,26.876935 c 0,-0.88767 -0.313938,-1.880118 -0.85186,-2.692973 -0.09727,-0.146987 -0.143597,-0.278408 -0.108781,-0.308599 0.03335,-0.02892 0.206012,-0.168677 0.383687,-0.310566 l 0.323046,-0.25798 0.127997,0.163258 c 0.216634,0.276312 0.768708,1.418202 0.862394,1.783742 0.0488,0.190401 0.108347,0.346183 0.132332,0.346183 0.02398,0 0.25376,-0.147584 0.510612,-0.327964 0.860393,-0.604231 1.51958,-1.492074 1.85496,-2.498403 0.202344,-0.607145 0.208815,-0.59587 -0.403114,-0.702433 -1.392931,-0.242568 -2.755546,0.092 -3.89794,0.957073 -0.646735,0.489738 -1.069924,0.987004 -1.46793,1.724881 -0.152342,0.282432 -0.313506,0.513513 -0.358142,0.513513 -0.142765,0 -0.707261,-0.393481 -0.707261,-0.492995 0,-0.143326 0.44479,-0.960046 0.730998,-1.342252 0.591681,-0.790139 1.43398,-1.469367 2.346101,-1.891892 0.770016,-0.356698 1.291494,-0.478221 2.222901,-0.518014 0.86608,-0.037 1.585585,0.07744 2.391586,0.380389 l 0.391587,0.147186 -0.04348,0.375455 c -0.156971,1.355645 -1.003068,2.942769 -2.022203,3.793284 -0.36442,0.304126 -1.103926,0.791634 -1.290813,0.85095 C 26.497565,26.60341 26.48,26.675993 26.48,27.092249 c 0,1.23544 -0.431731,2.455791 -1.255457,3.548734 -0.45112,0.59856 -1.086089,1.225684 -1.241016,1.225684 -0.05745,0 -0.370498,-0.263272 -0.695663,-0.585049 z"
     id="path148"
     inkscape:connector-curvature="0" />
  <path
     style="fill:#ffffff;stroke-width:0.06666667"
     d="m 12.038275,17.354416 c 0.05234,-1.872795 0.07692,-1.963804 0.598621,-2.216353 C 12.918327,15.001825 12.995189,15 18.452824,15 h 5.530727 l 0.496313,0.999726 0.496313,0.999725 -0.247543,0.500275 L 24.481091,18 h -5.267212 -5.267212 v 0.5 0.5 h -0.977193 -0.977193 z"
     id="path150"
     inkscape:connector-curvature="0" />
</svg>
