<?xml version="1.0" encoding="UTF-8" standalone="no"?>
<svg
   xmlns:dc="http://purl.org/dc/elements/1.1/"
   xmlns:cc="http://creativecommons.org/ns#"
   xmlns:rdf="http://www.w3.org/1999/02/22-rdf-syntax-ns#"
   xmlns:svg="http://www.w3.org/2000/svg"
   xmlns="http://www.w3.org/2000/svg"
   xmlns:sodipodi="http://sodipodi.sourceforge.net/DTD/sodipodi-0.dtd"
   xmlns:inkscape="http://www.inkscape.org/namespaces/inkscape"
   viewBox="0 0 48 48"
   version="1.1"
   id="svg148"
   sodipodi:docname="terminal.svg"
   inkscape:version="0.92.5 (2060ec1f9f, 2020-04-08)">
  <metadata
     id="metadata152">
    <rdf:RDF>
      <cc:Work
         rdf:about="">
        <dc:format>image/svg+xml</dc:format>
        <dc:type
           rdf:resource="http://purl.org/dc/dcmitype/StillImage" />
      </cc:Work>
    </rdf:RDF>
  </metadata>
  <sodipodi:namedview
     pagecolor="#ffffff"
     bordercolor="#666666"
     borderopacity="1"
     objecttolerance="10"
     gridtolerance="10"
     guidetolerance="10"
     inkscape:pageopacity="0"
     inkscape:pageshadow="2"
     inkscape:window-width="1920"
     inkscape:window-height="915"
     id="namedview150"
     showgrid="false"
     inkscape:zoom="15"
     inkscape:cx="24"
     inkscape:cy="24"
     inkscape:window-x="0"
     inkscape:window-y="0"
     inkscape:window-maximized="1"
     inkscape:current-layer="svg148" />
  <defs
     id="defs106">
    <linearGradient
       id="linearGradient3764"
       x1="1"
       x2="47"
       gradientUnits="userSpaceOnUse"
       gradientTransform="matrix(0,-1,1,0,-1.5e-6,47.999998)">
      <stop
         style="stop-color:#575757;stop-opacity:1"
         id="stop101" />
      <stop
         offset="1"
         style="stop-color:#616161;stop-opacity:1"
         id="stop103" />
    </linearGradient>
  </defs>
  <g
     id="g114">
    <path
       d="m 36.31 5 c 5.859 4.062 9.688 10.831 9.688 18.5 c 0 12.426 -10.07 22.5 -22.5 22.5 c -7.669 0 -14.438 -3.828 -18.5 -9.688 c 1.037 1.822 2.306 3.499 3.781 4.969 c 4.085 3.712 9.514 5.969 15.469 5.969 c 12.703 0 23 -10.298 23 -23 c 0 -5.954 -2.256 -11.384 -5.969 -15.469 c -1.469 -1.475 -3.147 -2.744 -4.969 -3.781 z m 4.969 3.781 c 3.854 4.113 6.219 9.637 6.219 15.719 c 0 12.703 -10.297 23 -23 23 c -6.081 0 -11.606 -2.364 -15.719 -6.219 c 4.16 4.144 9.883 6.719 16.219 6.719 c 12.703 0 23 -10.298 23 -23 c 0 -6.335 -2.575 -12.06 -6.719 -16.219 z"
       style="opacity:0.05"
       id="path108" />
    <path
       d="m 41.28 8.781 c 3.712 4.085 5.969 9.514 5.969 15.469 c 0 12.703 -10.297 23 -23 23 c -5.954 0 -11.384 -2.256 -15.469 -5.969 c 4.113 3.854 9.637 6.219 15.719 6.219 c 12.703 0 23 -10.298 23 -23 c 0 -6.081 -2.364 -11.606 -6.219 -15.719 z"
       style="opacity:0.1"
       id="path110" />
    <path
       d="m 31.25 2.375 c 8.615 3.154 14.75 11.417 14.75 21.13 c 0 12.426 -10.07 22.5 -22.5 22.5 c -9.708 0 -17.971 -6.135 -21.12 -14.75 a 23 23 0 0 0 44.875 -7 a 23 23 0 0 0 -16 -21.875 z"
       style="opacity:0.2"
       id="path112" />
  </g>
  <g
     id="g118">
    <path
       d="m 24 1 c 12.703 0 23 10.297 23 23 c 0 12.703 -10.297 23 -23 23 -12.703 0 -23 -10.297 -23 -23 0 -12.703 10.297 -23 23 -23 z"
       style="fill:url(#linearGradient3764);fill-opacity:1"
       id="path116" />
  </g>
  <g
     id="g132">
    <g
       id="g130">
      <g
         transform="translate(1,1)"
         id="g128">
        <g
           style="opacity:0.1"
           id="g126">
          <!-- color: #616161 -->
          <g
             id="g124">
            <path
               d="m 36 34 l 0 -4 l -12 0 l 0 4 m 12 0"
               style="fill:#000;fill-opacity:1;stroke:none;fill-rule:nonzero"
               id="path120" />
            <path
               d="m 14.746 30 l -2.742 -2.906 l 6.172 -5.094 l -6.172 -5.09 l 2.742 -2.91 l 9.258 8 m -9.258 8"
               style="fill:#000;fill-opacity:1;stroke:none;fill-rule:nonzero"
               id="path122" />
          </g>
        </g>
      </g>
    </g>
  </g>
  <g
     id="g142">
    <g
       id="g140">
      <!-- color: #616161 -->
      <g
         id="g138">
        <path
           d="m 36 34 l 0 -4 l -12 0 l 0 4 m 12 0"
           style="fill:#dcdcdc;fill-opacity:1;stroke:none;fill-rule:nonzero"
           id="path134" />
        <path
           d="m 14.746 30 l -2.742 -2.906 l 6.172 -5.094 l -6.172 -5.09 l 2.742 -2.91 l 9.258 8 m -9.258 8"
           style="fill:#dcdcdc;fill-opacity:1;stroke:none;fill-rule:nonzero"
           id="path136" />
      </g>
    </g>
  </g>
  <g
     id="g146">
    <path
       d="m 40.03 7.531 c 3.712 4.084 5.969 9.514 5.969 15.469 0 12.703 -10.297 23 -23 23 c -5.954 0 -11.384 -2.256 -15.469 -5.969 4.178 4.291 10.01 6.969 16.469 6.969 c 12.703 0 23 -10.298 23 -23 0 -6.462 -2.677 -12.291 -6.969 -16.469 z"
       style="opacity:0.1"
       id="path144" />
  </g>
  <path
     style="fill:#000000;stroke-width:0.06666667"
     d="m 21.513333,45.960995 c -1.389306,-0.13511 -1.854145,-0.194346 -2.633333,-0.33557 -3.529739,-0.639748 -6.767143,-2.04502 -9.6058947,-4.169664 -0.4734246,-0.354332 -0.860772,-0.627571 -0.860772,-0.6072 0,0.105871 -1.7253294,-1.730762 -2.3110336,-2.460121 C 2.0775056,33.376486 0.35197727,27.018012 1.2840146,20.633333 2.2575525,13.964366 6.1509565,8.0576227 11.946667,4.4568589 c 2.94804,-1.8315612 6.352,-2.9752538 9.9,-3.3262898 1.077868,-0.1066434 3.4996,-0.087945 4.633333,0.035775 9.805084,1.0699869 17.888882,8.3320203 19.969646,17.9396169 0.333817,1.541347 0.439393,2.492826 0.477657,4.304746 0.01987,0.940888 0.01466,1.968388 -0.01157,2.283333 l -0.0477,0.572627 h -0.526079 c -0.491969,0 -0.528081,0.0097 -0.556956,0.15 -0.01698,0.0825 -0.111573,0.57 -0.2102,1.083333 -1.202177,6.25708 -5.183294,11.886728 -10.783785,15.249217 -2.789176,1.674598 -5.840792,2.70399 -9.244344,3.118364 -0.58221,0.07088 -3.556647,0.139772 -4.033334,0.09341 z M 36.946667,33 V 31 H 36.48 36.013333 V 30.5 30 H 29.98 23.946667 v 2 2 H 24.48 25.013333 V 34.5 35 H 30.98 36.946667 Z M 18.477548,28.599855 21.140897,26.3 l -1.002102,-0.03333 -1.002101,-0.03333 2.437111,-2.1 c 1.340412,-1.155 2.430156,-2.121569 2.421654,-2.147932 C 23.974001,21.918866 14.802381,14 14.746778,14 c -0.0801,0 -2.744853,2.865983 -2.722117,2.927675 0.0121,0.03284 0.547699,0.490046 1.190213,1.016016 2.920658,2.390888 4.865126,4.010498 4.865126,4.05232 0,0.03979 -1.69889,1.454947 -5.080571,4.232056 -0.539313,0.442897 -0.974313,0.838412 -0.966666,0.878923 0.02341,0.124035 2.669366,2.896745 2.741402,2.872733 0.0371,-0.01237 0.261809,0.19773 0.49936,0.46688 0.237552,0.269149 0.456384,0.481205 0.486294,0.471235 0.02991,-0.01 1.252888,-1.053062 2.717729,-2.317983 z"
     id="path154"
     inkscape:connector-curvature="0" />
  <path
     style="fill:#000000;stroke-width:0.06666667"
     d="m 15.268076,30.416667 -0.441682,-0.45 2.127479,-1.833334 L 19.081352,26.3 19.664009,26.28234 c 0.320462,-0.0097 0.761409,0.0053 0.979883,0.03333 l 0.397225,0.05099 -2.619233,2.25 c -1.440578,1.2375 -2.640134,2.25 -2.66568,2.25 -0.02555,0 -0.245203,-0.2025 -0.488128,-0.45 z"
     id="path156"
     inkscape:connector-curvature="0" />
  <path
     style="fill:#000000;stroke-width:0.06666667"
     d="M 20.413333,45.829647 C 17.542092,45.465695 15.263463,44.789463 12.78,43.564295 11.499451,42.932561 10.704058,42.447501 9.2677673,41.422406 8.217506,40.672823 7.3583421,39.845226 6.2684991,38.533333 1.667542,32.994956 -0.01461547,25.427956 1.7780033,18.333333 4.3965527,7.9699367 14.025929,0.72272867 24.68,1.0969584 c 1.909391,0.067068 2.96214,0.2040672 4.639303,0.6037329 5.70007,1.3583192 10.594179,4.7929422 13.860378,9.7270367 1.686563,2.547812 2.874931,5.535793 3.427569,8.618132 0.213246,1.189379 0.281261,2.321345 0.259621,4.320807 l -0.0202,1.866666 -0.528369,0.03333 -0.528369,0.03333 -0.250404,1.2 c -0.410642,1.967899 -0.823898,3.267067 -1.563065,4.913865 -0.691581,1.54078 -1.738462,3.26265 -2.868722,4.718362 -0.718633,0.925561 -2.475839,2.73901 -3.380221,3.488414 -3.349624,2.77562 -7.010116,4.412806 -11.447517,5.12 -1.134683,0.180836 -4.713831,0.235137 -5.866667,0.08901 z M 36.946667,33 V 31 H 36.48 36.013333 V 30.5 30 H 29.98 23.946667 v 2 2 H 24.48 25.013333 V 34.5 35 H 30.98 36.946667 Z m -20.39861,-2.717224 c 1.457548,-1.232454 4.52911,-3.890924 4.56774,-3.95343 0.02287,-0.037 -0.188182,-0.06564 -0.515196,-0.06992 -0.304664,-0.004 -0.732895,-0.02648 -0.951625,-0.05 l -0.39769,-0.04276 1.430349,-1.233334 c 2.005601,-1.72935 3.295166,-2.867196 3.316774,-2.926554 C 24.025978,21.93105 14.871636,14 14.756658,14 c -0.112368,0 -2.743325,2.79983 -2.743325,2.919411 0,0.03241 0.649872,0.596306 1.44416,1.253095 0.794288,0.656788 2.144288,1.773359 3,2.481268 0.855712,0.707909 1.55584,1.310831 1.55584,1.339825 0,0.02899 -0.5775,0.531732 -1.283333,1.117194 -3.565815,2.957709 -4.429901,3.683466 -4.576521,3.843883 l -0.159854,0.174897 0.459854,0.51818 c 0.525016,0.591609 3.217876,3.285868 3.283318,3.285023 0.02376,-3.33e-4 0.388828,-0.292807 0.81126,-0.65 z"
     id="path158"
     inkscape:connector-curvature="0" />
  <path
     style="fill:#000000;stroke-width:0.06666667"
     d="M 20.413333,45.831369 C 16.846743,45.377713 13.684539,44.281856 10.909925,42.537977 9.3623853,41.565329 8.315086,40.755496 7.4776183,39.883917 4.0149277,36.280185 1.929547,31.947475 1.2443608,26.933333 1.0968174,25.853622 1.0425645,23.301963 1.1420813,22.122862 1.5904165,16.810866 3.7923039,11.935014 7.4614131,8.129356 10.727507,4.7417119 14.852765,2.4641027 19.402575,1.5364848 c 1.804261,-0.3678539 2.46723,-0.4302736 4.544092,-0.4278344 2.402786,0.00282 3.631602,0.1455823 5.666666,0.6583374 8.42199,2.122006 14.940732,8.8485392 16.806896,17.3426312 0.366278,1.66716 0.405274,2.083189 0.440939,4.704234 l 0.0333,2.447188 -0.552171,0.01948 -0.552172,0.01948 -0.251636,1.220139 c -0.278768,1.35169 -0.659886,2.68279 -1.0727,3.746528 -2.162519,5.57238 -6.640084,10.283412 -12.068727,12.698011 -1.918197,0.853192 -3.762682,1.39322 -6.050395,1.771434 -1.127959,0.186479 -4.757984,0.244757 -5.933334,0.09526 z M 36.946667,33 V 31 H 36.48 36.013333 V 30.5 30 H 29.98 23.946667 v 2 2 H 24.48 25.013333 V 34.5 35 H 30.98 36.946667 Z m -20.3,-2.80949 C 19.138897,28.064012 21.08,26.369938 21.08,26.321373 c 0,-0.03009 -0.2625,-0.05733 -0.583333,-0.06055 -0.320834,-0.0032 -0.732134,-0.02571 -0.914,-0.05 l -0.330668,-0.04416 1.961862,-1.7 c 1.079024,-0.935 2.15265,-1.878116 2.385837,-2.095814 0.408657,-0.381512 0.419287,-0.399578 0.294203,-0.5 -0.07138,-0.0573 -1.161202,-1.005152 -2.421837,-2.106331 -2.089672,-1.825353 -5.507577,-4.77058 -6.377097,-5.495178 l -0.351701,-0.293083 -0.270681,0.26187 c -0.359924,0.348206 -2.261173,2.401612 -2.377725,2.568013 -0.08044,0.114846 -0.07526,0.145007 0.04224,0.245719 0.126302,0.108258 1.26927,1.059532 4.488137,3.735407 0.763453,0.634665 1.388095,1.177141 1.388095,1.205501 0,0.05401 -0.561369,0.529584 -3.8,3.219268 -1.081666,0.898325 -2.023548,1.697817 -2.09307,1.776649 -0.125699,0.142531 -0.124629,0.145289 0.191717,0.493988 0.500678,0.551883 3.381011,3.450845 3.426827,3.448988 0.02266,-9.2e-4 0.431193,-0.334437 0.90786,-0.741154 z"
     id="path160"
     inkscape:connector-curvature="0" />
  <path
     style="fill:#ffffff;stroke-width:0.06666667"
     d="M 22.613333,46.927271 C 18.965837,46.712609 15.375145,45.602943 12.212281,43.712935 11.020753,43.000923 9.0089002,41.515544 9.1053783,41.419066 c 0.017491,-0.01749 0.3264368,0.175801 0.6865454,0.429538 3.0666583,2.160807 6.3584243,3.435077 10.3214093,3.995503 1.275444,0.180367 4.74263,0.159923 6.039043,-0.03561 4.253518,-0.641538 7.976519,-2.235864 11.134021,-4.767998 4.459532,-3.576285 7.320082,-8.327265 8.3913,-13.936792 0.07663,-0.401294 0.146,-0.735146 0.154151,-0.741893 0.0082,-0.0067 0.244775,-0.03324 0.525833,-0.05887 l 0.511015,-0.0466 -0.03339,0.288492 c -0.73259,6.329522 -3.988382,12.021321 -9.055305,15.830553 -3.64507,2.740306 -7.954354,4.30126 -12.583831,4.558249 -1.261544,0.07003 -1.285622,0.06997 -2.582836,-0.0064 z"
     id="path164"
     inkscape:connector-curvature="0" />
  <path
     style="fill:#000000;stroke-width:0.06666667"
     d="M 25.013333,34.5 V 34 h 5.5 5.5 V 32.5 31 H 36.48 36.946667 v 2 2 H 30.98 25.013333 Z"
     id="path168"
     inkscape:connector-curvature="0" />
</svg>
